<svg width="3968" height="1116" viewBox="0 0 3968 1116" fill="none" xmlns="http://www.w3.org/2000/svg">
<rect width="3968" height="1116" fill="#555556"/>
<g clip-path="url(#clip0_0_1)">
<rect width="3968" height="1116" fill="black"/>
<path d="M664.623 209.889L677.088 211.654L710.327 225.778L751.876 239.901L793.425 250.494L845.36 259.321L880.677 262.852H951.31L990.781 259.321L1042.72 250.494L1059.34 246.963H1069.72L1075.96 319.346V379.37L1069.72 444.691L1059.34 497.654L1044.79 548.852L1028.17 594.753L1003.25 647.716L970.007 704.21L943 741.284L926.38 760.704L901.451 788.951L880.677 808.37L866.135 822.494L845.36 840.148L828.741 852.506L803.812 870.161L766.418 893.111L731.101 910.765L697.862 924.889L675.011 933.716L656.314 931.951L600.223 909L560.752 887.815L527.513 866.63L500.506 847.21L469.344 822.494L446.493 801.309L427.796 781.889L398.712 748.346L367.55 705.975L338.466 658.309L313.537 607.111L292.762 554.148L278.22 504.716L267.833 451.753L261.601 402.321L259.523 370.543V322.877L265.756 255.79L267.833 246.963L286.53 248.728L332.234 257.556L382.092 262.852H450.647L492.196 259.321L550.364 248.728L583.603 239.901L625.152 225.778L664.623 209.889Z" fill="white"/>
<path d="M664.623 178.111L675.011 181.642L708.25 195.765L741.489 208.123L774.728 218.716L812.122 227.543L859.903 234.605L876.522 236.37H940.923L984.549 232.839L1038.56 224.012L1092.58 211.654L1096.73 222.247L1107.12 299.926V305.222H1115.43L1117.5 298.16H1123.74L1127.89 305.222L1136.2 303.457L1146.59 294.63L1148.67 305.222H1152.82L1161.13 340.531L1165.29 389.963L1167.36 391.728V409.383L1161.13 460.58L1152.82 504.716L1136.2 566.506L1119.58 610.642L1105.04 645.951L1086.34 683.025L1061.41 727.161L1036.48 764.235L1001.17 808.37L980.394 831.321L957.542 854.272L932.613 877.222L899.374 905.469L876.522 921.358L851.593 939.012L814.199 960.198L776.805 979.617L726.947 1000.8L672.933 1018.46L656.314 1016.69V1052H654.236V1014.93L633.462 1009.63L581.526 990.21L535.822 969.025L504.661 951.37L475.577 933.716L448.57 914.296L427.796 898.407L380.015 857.802L361.318 838.383L332.234 806.605L311.459 780.123L288.607 748.346L267.833 716.568L257.446 698.914L259.523 693.617L265.756 702.444L269.911 704.21V707.741L280.298 709.506L284.453 716.568L290.685 720.099L296.917 709.506L311.459 707.741L313.537 698.914H319.769V702.444L326.001 704.21L336.389 714.802V718.333H340.543L361.318 744.815L384.17 774.827L402.867 794.247L425.718 818.963L431.951 824.259V827.79H436.105L450.648 841.914L469.344 857.802L485.964 870.161L515.048 891.346L556.597 916.062L600.223 937.247L643.849 954.901L662.546 960.198L679.166 958.432L712.405 946.074L753.953 928.42L793.425 907.235L818.354 891.346L847.438 871.926L882.754 843.679L901.451 827.79L920.148 808.37L947.155 778.358L972.084 746.58L997.013 713.037L1026.1 663.605L1048.95 615.938L1071.8 557.679L1073.88 547.086L1065.57 548.852V554.148L1059.34 559.444L1051.03 557.679L1048.95 554.148V540.025L1057.26 510.012V497.654L1067.65 444.691L1073.88 379.37V319.346L1069.72 266.383V246.963L1003.25 259.321L976.239 262.852L951.31 264.617H880.677L834.973 259.321L776.805 248.728L729.024 234.605L683.32 216.951L672.933 211.654L660.469 213.42L616.842 231.074L573.216 245.198L515.048 257.556L475.577 262.852L450.648 264.617H382.092L321.846 257.556L267.833 246.963L263.678 294.63L261.601 322.877V370.543L265.756 421.741L269.911 451.753V481.765L271.988 487.062L274.065 517.074H269.911L267.833 522.37L255.369 510.012L249.136 497.654L238.749 457.049L232.517 412.914L230.439 391.728V314.049L234.594 262.852L240.826 220.481L242.904 213.42L263.678 216.951L301.072 225.778L340.543 232.839L371.705 236.37H452.725L502.583 231.074L554.519 220.481L596.068 208.123L643.849 188.704L664.623 178.111Z" fill="white"/>
<path d="M656.314 333.469H685.398L718.637 340.531L739.411 349.358L760.185 363.481L774.727 377.605L787.192 395.259L797.579 423.506L799.657 480L818.354 485.296L828.741 495.889L830.818 499.42V675.963L824.586 686.556L814.199 693.617L807.966 695.383H527.513L515.048 688.321L506.738 679.494L504.661 672.432V501.185L512.97 490.593L523.358 483.531L542.055 480L544.132 425.272L550.364 404.086L562.829 382.901L579.448 365.247L596.068 352.889L629.307 338.765L656.314 333.469Z" fill="#006A72"/>
<path d="M656.314 363.481H685.398L706.172 368.778L731.101 381.136L747.721 397.025L760.185 418.21L764.34 441.16V480L762.263 481.765H579.449V425.272L587.758 405.852L602.3 388.198L618.92 375.839L639.694 367.012L656.314 363.481Z" fill="white"/>
<path d="M257.446 693.617L265.756 702.444L269.911 704.21V707.741L280.298 709.506L284.453 716.568L290.685 720.099L296.917 709.506L311.459 707.741L313.537 698.914H319.769V702.444L326.001 704.21L336.389 714.802V718.333H340.543L361.318 744.815L384.17 774.827L402.866 794.247L425.718 818.963L431.951 824.259V827.79H436.105L450.648 841.914L469.344 857.802L485.964 870.161L512.971 889.58H506.738L494.274 884.284H485.964L488.041 887.815L485.964 893.111L477.654 894.877L475.577 901.938L469.344 903.704H461.035L440.26 894.877L423.641 882.519V878.988H415.331L380.015 848.975L363.395 836.617L357.163 829.556L350.931 827.79L323.924 796.012L296.917 760.704L269.911 720.099L257.446 698.914V693.617Z" fill="#9C19F5"/>
<path d="M257.446 314.049H259.523L263.678 402.321L269.911 451.753V481.765L271.988 487.062L274.065 517.074H269.911L267.833 522.37L255.369 510.012L249.136 497.654L238.749 457.049L232.517 412.914L230.439 391.728V365.247L234.594 361.716L236.672 356.42L249.136 352.889L253.291 333.469L255.369 317.58L257.446 314.049Z" fill="#9C19F5"/>
<path d="M687.475 123.383L702.017 125.148L731.101 137.506L785.115 156.926L797.579 162.222L810.044 163.988L845.36 171.049L878.599 176.346H940.922L980.394 172.815L1026.1 163.988H1042.72L1044.79 160.457L1078.03 155.161L1088.42 151.63H1098.81V155.161L1028.17 172.815L980.394 181.642L949.232 185.173H886.909L841.206 179.877L799.657 171.049L753.953 156.926L712.404 139.272L687.475 126.914V123.383Z" fill="#9C19F5"/>
<path d="M666.701 564.741L681.243 568.272L689.553 578.864V591.222L683.32 598.284L681.243 637.123L677.088 644.185L662.546 645.951L654.236 637.123L652.159 596.519L645.927 587.691L648.004 575.333L658.391 566.506L666.701 564.741Z" fill="white"/>
<path d="M267.833 465.876H271.988L276.143 492.358H271.988L267.833 476.469V465.876Z" fill="#9C19F5"/>
<path d="M666.223 89.8395L691.18 100.732L728.616 118.886L763.972 133.409L813.886 147.932L865.88 157.009L886.678 158.825H949.071L1003.14 151.563L1057.22 138.855L1136.25 117.07L1144.57 115.255L1148.73 126.147L1165.37 244.148L1169.53 294.979V358.518L1165.37 411.165L1159.13 456.55L1148.73 505.565L1136.25 552.766L1119.61 598.151L1105.05 634.459L1086.34 672.582L1061.38 717.967L1036.42 756.09L1001.07 801.475L980.268 825.075L957.39 848.675L932.433 872.276L899.157 901.322L876.279 917.661L851.322 935.815L813.886 957.599L776.451 977.569L726.536 999.354L672.462 1017.51L655.824 1015.69V1052H653.745V1013.88L632.947 1008.43L580.953 988.461L535.198 966.676L504.002 948.522L474.885 930.368L447.848 910.399L427.05 894.06L379.216 852.306L360.498 832.337L331.381 799.66L310.583 772.429L287.706 739.752L266.908 707.074L244.031 665.32L221.154 614.489L204.516 570.92L189.957 521.904L179.558 478.334L169.16 412.98L165 345.81V313.133L169.16 249.594L187.877 117.07L192.037 115.255L291.866 142.486L341.78 153.378L387.535 158.825H445.768L493.603 153.378L535.198 144.301L566.395 135.224L607.99 118.886L651.665 97.1011L655.824 91.6549V95.2857L666.223 89.8395ZM664.143 186.056L616.309 206.025L572.634 220.548L514.4 233.256L474.885 238.702L449.928 240.517H381.295L320.982 233.256L275.227 224.179H266.908L262.749 251.41L258.589 302.241V351.257L262.749 403.903L271.068 460.181L283.547 512.827L302.264 569.104L323.062 618.12L348.019 665.32L368.817 699.813L400.013 741.567L420.811 766.983L439.529 786.952L462.406 808.737L476.965 823.26L508.161 848.675L537.278 868.645L566.395 886.799L607.99 908.584L655.824 928.553L674.542 930.368L720.297 912.214L759.812 892.245L788.929 874.091L815.966 855.937L840.923 835.968L857.561 823.26L878.359 805.106L897.077 785.137L917.875 763.352L940.752 734.305L963.629 703.444L992.746 654.428L1009.38 623.566L1032.26 570.92L1050.98 514.642L1063.46 461.996L1071.78 411.165L1075.94 360.334V298.61L1069.7 224.179L1050.98 225.994L1003.14 235.071L976.108 238.702L951.151 240.517H880.439L834.684 235.071L776.451 224.179L728.616 209.656L682.861 191.502L672.462 186.056H664.143Z" fill="white"/>
<path d="M663.896 178.111L674.291 181.642L707.554 195.765L740.818 208.123L774.081 218.716L811.503 227.543L859.319 234.605L875.951 236.37H940.398L984.057 232.839L1038.11 224.012L1092.16 211.654L1096.32 222.247L1102.56 266.383V321.111L1098.4 344.062L1094.24 358.185L1092.16 361.716L1088 359.951L1079.69 345.827L1075.53 319.346H1073.45L1069.29 266.383V246.963L1002.77 259.321L975.741 262.852L950.793 264.617H880.108L834.371 259.321L776.16 248.728L728.344 234.605L682.607 216.951L672.212 211.654L659.738 213.42L616.08 231.074L572.422 245.197L514.211 257.556L474.71 262.852L449.763 264.617H381.157L320.867 257.556L266.814 246.963L262.656 294.63L260.577 322.876V370.543L264.735 421.741L268.893 451.753V481.765L270.972 487.062L273.051 517.074H268.893L266.814 522.37L254.34 510.012L248.103 497.654L237.709 457.049L231.472 412.914L229.393 391.728V314.049L233.551 262.852L239.788 220.481L241.866 213.42L262.656 216.951L300.077 225.778L339.578 232.839L370.762 236.37H451.842L501.737 231.074L553.711 220.481L595.29 208.123L643.107 188.704L663.896 178.111Z" fill="white"/>
<path d="M1572.2 283.756C1571.06 272.297 1566.18 263.396 1557.57 257.051C1548.95 250.706 1537.25 247.534 1522.48 247.534C1512.44 247.534 1503.97 248.955 1497.06 251.795C1490.14 254.542 1484.84 258.377 1481.15 263.301C1477.55 268.225 1475.75 273.812 1475.75 280.062C1475.56 285.271 1476.65 289.816 1479.02 293.699C1481.48 297.581 1484.84 300.943 1489.1 303.784C1493.36 306.53 1498.29 308.945 1503.87 311.028C1509.46 313.017 1515.43 314.722 1521.77 316.142L1547.91 322.392C1560.6 325.233 1572.24 329.021 1582.85 333.756C1593.46 338.491 1602.64 344.314 1610.41 351.227C1618.17 358.14 1624.19 366.284 1628.45 375.659C1632.8 385.034 1635.03 395.782 1635.12 407.903C1635.03 425.706 1630.48 441.142 1621.49 454.21C1612.59 467.184 1599.71 477.269 1582.85 484.466C1566.09 491.568 1545.87 495.119 1522.2 495.119C1498.71 495.119 1478.26 491.521 1460.83 484.324C1443.5 477.127 1429.96 466.473 1420.21 452.364C1410.55 438.159 1405.48 420.593 1405.01 399.665H1464.53C1465.19 409.419 1467.98 417.562 1472.91 424.097C1477.93 430.536 1484.6 435.413 1492.94 438.727C1501.36 441.947 1510.88 443.557 1521.49 443.557C1531.9 443.557 1540.95 442.042 1548.62 439.011C1556.38 435.981 1562.4 431.767 1566.66 426.369C1570.92 420.972 1573.05 414.769 1573.05 407.761C1573.05 401.227 1571.11 395.735 1567.23 391.284C1563.44 386.833 1557.85 383.045 1550.46 379.92C1543.17 376.795 1534.22 373.955 1523.62 371.398L1491.94 363.443C1467.42 357.477 1448.05 348.15 1433.85 335.46C1419.64 322.771 1412.59 305.678 1412.68 284.182C1412.59 266.568 1417.27 251.18 1426.74 238.017C1436.31 224.854 1449.42 214.58 1466.09 207.193C1482.76 199.807 1501.7 196.114 1522.91 196.114C1544.5 196.114 1563.34 199.807 1579.44 207.193C1595.63 214.58 1608.23 224.854 1617.23 238.017C1626.22 251.18 1630.86 266.426 1631.15 283.756H1572.2ZM1676.49 491V200.091H1872.52V250.801H1738V320.119H1862.43V370.83H1738V440.29H1873.09V491H1676.49ZM2178.09 301.938H2115.88C2114.74 293.888 2112.42 286.739 2108.92 280.489C2105.41 274.144 2100.91 268.746 2095.42 264.295C2089.93 259.845 2083.58 256.436 2076.39 254.068C2069.29 251.701 2061.57 250.517 2053.23 250.517C2038.18 250.517 2025.06 254.258 2013.89 261.739C2002.71 269.125 1994.05 279.92 1987.89 294.125C1981.74 308.235 1978.66 325.375 1978.66 345.545C1978.66 366.284 1981.74 383.708 1987.89 397.818C1994.14 411.928 2002.86 422.581 2014.03 429.778C2025.2 436.975 2038.13 440.574 2052.81 440.574C2061.05 440.574 2068.67 439.485 2075.68 437.307C2082.78 435.129 2089.08 431.956 2094.57 427.79C2100.06 423.528 2104.61 418.367 2108.21 412.307C2111.9 406.246 2114.46 399.333 2115.88 391.568L2178.09 391.852C2176.48 405.205 2172.46 418.083 2166.02 430.489C2159.67 442.799 2151.1 453.831 2140.31 463.585C2129.61 473.244 2116.82 480.915 2101.96 486.597C2087.18 492.184 2070.47 494.977 2051.81 494.977C2025.87 494.977 2002.67 489.106 1982.21 477.364C1961.85 465.621 1945.75 448.623 1933.92 426.369C1922.17 404.116 1916.3 377.174 1916.3 345.545C1916.3 313.822 1922.27 286.833 1934.2 264.58C1946.13 242.326 1962.33 225.375 1982.78 213.727C2003.23 201.985 2026.25 196.114 2051.81 196.114C2068.67 196.114 2084.29 198.481 2098.69 203.216C2113.18 207.951 2126.01 214.864 2137.18 223.955C2148.36 232.951 2157.45 243.983 2164.46 257.051C2171.56 270.119 2176.1 285.081 2178.09 301.938ZM2401.88 200.091H2463.39V389.011C2463.39 410.223 2458.32 428.784 2448.19 444.693C2438.15 460.602 2424.09 473.008 2406 481.909C2387.92 490.716 2366.85 495.119 2342.79 495.119C2318.65 495.119 2297.53 490.716 2279.44 481.909C2261.35 473.008 2247.29 460.602 2237.25 444.693C2227.22 428.784 2222.2 410.223 2222.2 389.011V200.091H2283.7V383.756C2283.7 394.835 2286.12 404.684 2290.95 413.301C2295.87 421.919 2302.78 428.689 2311.69 433.614C2320.59 438.538 2330.96 441 2342.79 441C2354.73 441 2365.1 438.538 2373.9 433.614C2382.8 428.689 2389.67 421.919 2394.5 413.301C2399.42 404.684 2401.88 394.835 2401.88 383.756V200.091ZM2513.99 491V200.091H2628.77C2650.74 200.091 2669.49 204.021 2685.02 211.881C2700.64 219.646 2712.53 230.678 2720.67 244.977C2728.91 259.182 2733.03 275.896 2733.03 295.119C2733.03 314.437 2728.86 331.057 2720.53 344.977C2712.19 358.803 2700.12 369.409 2684.31 376.795C2668.59 384.182 2649.55 387.875 2627.2 387.875H2550.36V338.443H2617.26C2629 338.443 2638.76 336.833 2646.52 333.614C2654.29 330.394 2660.06 325.564 2663.85 319.125C2667.73 312.686 2669.68 304.684 2669.68 295.119C2669.68 285.46 2667.73 277.316 2663.85 270.688C2660.06 264.059 2654.24 259.04 2646.38 255.631C2638.62 252.127 2628.81 250.375 2616.98 250.375H2575.5V491H2513.99ZM2671.1 358.614L2743.4 491H2675.5L2604.76 358.614H2671.1ZM2776.49 491V200.091H2972.52V250.801H2838V320.119H2962.43V370.83H2838V440.29H2973.09V491H2776.49Z" fill="white"/>
<path d="M1351.59 682.969C1351.07 677.24 1348.76 672.786 1344.64 669.609C1340.58 666.38 1334.77 664.766 1327.22 664.766C1322.22 664.766 1318.05 665.417 1314.72 666.719C1311.39 668.021 1308.89 669.818 1307.22 672.109C1305.55 674.349 1304.69 676.927 1304.64 679.844C1304.54 682.24 1305.01 684.349 1306.05 686.172C1307.14 687.995 1308.7 689.609 1310.73 691.016C1312.82 692.37 1315.32 693.568 1318.23 694.609C1321.15 695.651 1324.43 696.562 1328.08 697.344L1341.83 700.469C1349.74 702.188 1356.72 704.479 1362.77 707.344C1368.86 710.208 1373.96 713.62 1378.08 717.578C1382.24 721.536 1385.4 726.094 1387.53 731.25C1389.67 736.406 1390.76 742.187 1390.81 748.594C1390.76 758.698 1388.21 767.37 1383.16 774.609C1378.1 781.849 1370.84 787.396 1361.36 791.25C1351.93 795.104 1340.55 797.031 1327.22 797.031C1313.83 797.031 1302.17 795.026 1292.22 791.016C1282.27 787.005 1274.54 780.911 1269.02 772.734C1263.49 764.557 1260.66 754.219 1260.5 741.719H1297.53C1297.84 746.875 1299.22 751.172 1301.67 754.609C1304.12 758.047 1307.48 760.651 1311.75 762.422C1316.07 764.193 1321.07 765.078 1326.75 765.078C1331.96 765.078 1336.39 764.375 1340.03 762.969C1343.73 761.563 1346.57 759.609 1348.55 757.109C1350.53 754.609 1351.54 751.745 1351.59 748.516C1351.54 745.495 1350.6 742.917 1348.78 740.781C1346.96 738.594 1344.15 736.719 1340.34 735.156C1336.59 733.542 1331.8 732.057 1325.97 730.703L1309.25 726.797C1295.4 723.62 1284.48 718.49 1276.52 711.406C1268.55 704.271 1264.59 694.635 1264.64 682.5C1264.59 672.604 1267.24 663.932 1272.61 656.484C1277.97 649.036 1285.4 643.229 1294.88 639.063C1304.35 634.896 1315.16 632.812 1327.3 632.812C1339.69 632.812 1350.45 634.922 1359.56 639.141C1368.73 643.307 1375.84 649.167 1380.89 656.719C1385.94 664.271 1388.52 673.021 1388.63 682.969H1351.59ZM1496.83 682.969C1496.31 677.24 1493.99 672.786 1489.88 669.609C1485.81 666.38 1480.01 664.766 1472.45 664.766C1467.45 664.766 1463.29 665.417 1459.95 666.719C1456.62 668.021 1454.12 669.818 1452.45 672.109C1450.79 674.349 1449.93 676.927 1449.88 679.844C1449.77 682.24 1450.24 684.349 1451.28 686.172C1452.38 687.995 1453.94 689.609 1455.97 691.016C1458.05 692.37 1460.55 693.568 1463.47 694.609C1466.39 695.651 1469.67 696.562 1473.31 697.344L1487.06 700.469C1494.98 702.188 1501.96 704.479 1508 707.344C1514.09 710.208 1519.2 713.62 1523.31 717.578C1527.48 721.536 1530.63 726.094 1532.77 731.25C1534.9 736.406 1535.99 742.187 1536.05 748.594C1535.99 758.698 1533.44 767.37 1528.39 774.609C1523.34 781.849 1516.07 787.396 1506.59 791.25C1497.17 795.104 1485.79 797.031 1472.45 797.031C1459.07 797.031 1447.4 795.026 1437.45 791.016C1427.51 787.005 1419.77 780.911 1414.25 772.734C1408.73 764.557 1405.89 754.219 1405.73 741.719H1442.77C1443.08 746.875 1444.46 751.172 1446.91 754.609C1449.35 758.047 1452.71 760.651 1456.98 762.422C1461.31 764.193 1466.31 765.078 1471.98 765.078C1477.19 765.078 1481.62 764.375 1485.27 762.969C1488.96 761.563 1491.8 759.609 1493.78 757.109C1495.76 754.609 1496.78 751.745 1496.83 748.516C1496.78 745.495 1495.84 742.917 1494.02 740.781C1492.19 738.594 1489.38 736.719 1485.58 735.156C1481.83 733.542 1477.04 732.057 1471.2 730.703L1454.48 726.797C1440.63 723.62 1429.72 718.49 1421.75 711.406C1413.78 704.271 1409.82 694.635 1409.88 682.5C1409.82 672.604 1412.48 663.932 1417.84 656.484C1423.21 649.036 1430.63 643.229 1440.11 639.063C1449.59 634.896 1460.4 632.812 1472.53 632.812C1484.93 632.812 1495.68 634.922 1504.8 639.141C1513.96 643.307 1521.07 649.167 1526.13 656.719C1531.18 664.271 1533.76 673.021 1533.86 682.969H1496.83ZM1555.58 795V635H1594.25V763.594H1660.81V795H1555.58ZM1728.1 795V635H1839.66V666.406H1766.77V699.219H1833.96V730.703H1766.77V763.594H1839.66V795H1728.1ZM2000.05 635V795H1967.24L1903.57 702.656H1902.55V795H1863.88V635H1897.16L1960.13 727.187H1961.46V635H2000.05ZM2169.6 692.969H2130.54C2130.02 688.958 2128.95 685.339 2127.34 682.109C2125.72 678.88 2123.59 676.12 2120.93 673.828C2118.27 671.536 2115.12 669.792 2111.48 668.594C2107.88 667.344 2103.9 666.719 2099.52 666.719C2091.76 666.719 2085.07 668.62 2079.45 672.422C2073.87 676.224 2069.58 681.719 2066.55 688.906C2063.59 696.094 2062.1 704.792 2062.1 715C2062.1 725.625 2063.61 734.531 2066.63 741.719C2069.71 748.854 2074 754.245 2079.52 757.891C2085.1 761.484 2091.68 763.281 2099.29 763.281C2103.56 763.281 2107.44 762.734 2110.93 761.641C2114.47 760.547 2117.57 758.958 2120.23 756.875C2122.93 754.74 2125.15 752.161 2126.87 749.141C2128.64 746.068 2129.86 742.604 2130.54 738.75L2169.6 738.984C2168.92 746.068 2166.87 753.047 2163.43 759.922C2160.04 766.797 2155.38 773.073 2149.45 778.75C2143.51 784.375 2136.27 788.854 2127.73 792.187C2119.24 795.521 2109.5 797.187 2098.51 797.187C2084.03 797.187 2071.06 794.01 2059.6 787.656C2048.2 781.25 2039.18 771.927 2032.57 759.687C2025.96 747.448 2022.65 732.552 2022.65 715C2022.65 697.396 2026.01 682.474 2032.73 670.234C2039.45 657.995 2048.53 648.698 2059.99 642.344C2071.45 635.99 2084.29 632.812 2098.51 632.812C2108.2 632.812 2117.15 634.167 2125.38 636.875C2133.61 639.531 2140.85 643.437 2147.1 648.594C2153.35 653.698 2158.43 659.974 2162.34 667.422C2166.24 674.87 2168.66 683.385 2169.6 692.969ZM2191.73 795V635H2257.82C2269.8 635 2280.14 637.161 2288.84 641.484C2297.59 645.755 2304.33 651.901 2309.07 659.922C2313.81 667.891 2316.18 677.344 2316.18 688.281C2316.18 699.375 2313.76 708.802 2308.92 716.562C2304.07 724.271 2297.2 730.156 2288.29 734.219C2279.39 738.229 2268.84 740.234 2256.65 740.234H2214.86V709.766H2249.46C2255.3 709.766 2260.17 709.01 2264.07 707.5C2268.03 705.937 2271.03 703.594 2273.06 700.469C2275.09 697.292 2276.11 693.229 2276.11 688.281C2276.11 683.333 2275.09 679.245 2273.06 676.016C2271.03 672.734 2268.03 670.286 2264.07 668.672C2260.12 667.005 2255.25 666.172 2249.46 666.172H2230.4V795H2191.73ZM2281.81 721.875L2321.65 795H2279.46L2240.4 721.875H2281.81ZM2322.34 635H2365.54L2399.37 701.953H2400.77L2434.6 635H2477.8L2419.29 741.562V795H2380.85V741.562L2322.34 635ZM2494.02 795V635H2560.11C2572.09 635 2582.43 637.344 2591.13 642.031C2599.88 646.667 2606.62 653.151 2611.36 661.484C2616.1 669.766 2618.47 679.401 2618.47 690.391C2618.47 701.432 2616.05 711.094 2611.2 719.375C2606.41 727.604 2599.56 733.984 2590.66 738.516C2581.75 743.047 2571.18 745.312 2558.94 745.312H2518.16V714.844H2551.75C2557.58 714.844 2562.45 713.828 2566.36 711.797C2570.32 709.766 2573.31 706.927 2575.34 703.281C2577.38 699.583 2578.39 695.286 2578.39 690.391C2578.39 685.443 2577.38 681.172 2575.34 677.578C2573.31 673.932 2570.32 671.12 2566.36 669.141C2562.4 667.161 2557.53 666.172 2551.75 666.172H2532.69V795H2494.02ZM2632.3 666.406V635H2767.53V666.406H2719.02V795H2680.89V666.406H2632.3ZM2825.09 635V795H2786.42V635H2825.09ZM3000.38 715C3000.38 732.604 2997 747.526 2990.23 759.766C2983.46 772.005 2974.29 781.302 2962.73 787.656C2951.22 794.01 2938.3 797.187 2923.98 797.187C2909.6 797.187 2896.66 793.984 2885.15 787.578C2873.64 781.172 2864.5 771.875 2857.73 759.687C2851.01 747.448 2847.65 732.552 2847.65 715C2847.65 697.396 2851.01 682.474 2857.73 670.234C2864.5 657.995 2873.64 648.698 2885.15 642.344C2896.66 635.99 2909.6 632.812 2923.98 632.812C2938.3 632.812 2951.22 635.99 2962.73 642.344C2974.29 648.698 2983.46 657.995 2990.23 670.234C2997 682.474 3000.38 697.396 3000.38 715ZM2960.85 715C2960.85 704.583 2959.37 695.781 2956.4 688.594C2953.48 681.406 2949.26 675.964 2943.74 672.266C2938.27 668.568 2931.68 666.719 2923.98 666.719C2916.32 666.719 2909.73 668.568 2904.21 672.266C2898.69 675.964 2894.45 681.406 2891.48 688.594C2888.56 695.781 2887.1 704.583 2887.1 715C2887.1 725.417 2888.56 734.219 2891.48 741.406C2894.45 748.594 2898.69 754.036 2904.21 757.734C2909.73 761.432 2916.32 763.281 2923.98 763.281C2931.68 763.281 2938.27 761.432 2943.74 757.734C2949.26 754.036 2953.48 748.594 2956.4 741.406C2959.37 734.219 2960.85 725.417 2960.85 715ZM3159.13 635V795H3126.32L3062.65 702.656H3061.63V795H3022.96V635H3056.24L3119.21 727.187H3120.54V635H3159.13Z" fill="white"/>
</g>
<defs>
<clipPath id="clip0_0_1">
<rect width="3968" height="1116" fill="white"/>
</clipPath>
</defs>
</svg>
